# xmcd
#
# Track frame offsets:
#	150
#	9995
#	20353
#	28791
#	39213
#	51060
#	61445
#	72483
#	85406
#	96468
#	108508
#	118532
#	132263
#	140063
#	153420
#	163390
#	175242
#	183419
#	192216
#	204784
#	214981
#	228911
#	239104
#	248160
#	259417
#
# Disc length: 3600 seconds
#
# Revision: 0
# Processed by: cddbd v1.5.2PL0 Copyright (c) Steve Scherf et al.
# Submitted via: FairStars CD Ripper 1.80
#
DISCID=6d0e0e19
DTITLE=Various Artist - Ding Dong: The Gee Records Story 1956-1962 cd1
DYEAR=2015
DGENRE=Oldies
TTITLE0=The Echoes - Ding Dong
TTITLE1=Frankie Lymon and The Teenagers - Why Do Fools Fall In Love
TTITLE2=The Cleftones - Heart And Soul
TTITLE3=The Regents - Runaround
TTITLE4=The Emanons - Change Of Time
TTITLE5=The Harptones - So Good So Fine, You're Mine
TTITLE6=Jimmy Mack and The Watts - I Believe I Love You
TTITLE7=The MelloTones - Rosie Lee
TTITLE8=Little Billy Mason - School Kid
TTITLE9=The Jets - Heaven Above Me
TTITLE10=The Drapers - I Know Your Love Has Gone Away
TTITLE11=The Valtones - Have You Ever Met An Angel
TTITLE12=Ollie Shepard - My Babe Is Gone
TTITLE13=Jimmy Wright Orchestra - Move Over
TTITLE14='Little' Frankie Brunson - How Can I Please You
TTITLE15=The Debonaires - I'm Gone
TTITLE16=Johnny Green Combo - Lonesome Road
TTITLE17=Anne Kaye - Dilly Dally Darling 
TTITLE18=The Heartbeats - People Are Talking
TTITLE19=The Lanes - Open Up Your Heart
TTITLE20=Johnny Blake and The Clippers - Bella Marie
TTITLE21=The Mellow Keys - Listen Baby
TTITLE22=The Sweet Teens - My Valentine 
TTITLE23=The Angels - Glory Of Love
TTITLE24=The Squires - Don't Accuse Me 
EXTD=
EXTT0=
EXTT1=
EXTT2=
EXTT3=
EXTT4=
EXTT5=
EXTT6=
EXTT7=
EXTT8=
EXTT9=
EXTT10=
EXTT11=
EXTT12=
EXTT13=
EXTT14=
EXTT15=
EXTT16=
EXTT17=
EXTT18=
EXTT19=
EXTT20=
EXTT21=
EXTT22=
EXTT23=
EXTT24=
PLAYORDER=
